<?xml version="1.0" encoding="utf-8"?>
<!-- Generator: Adobe Illustrator 19.1.0, SVG Export Plug-In . SVG Version: 6.00 Build 0)  -->
<svg version="1.1" id="Layer_1" xmlns="http://www.w3.org/2000/svg" xmlns:xlink="http://www.w3.org/1999/xlink" x="0px" y="0px"
	 viewBox="0 0 651 200" style="enable-background:new 0 0 651 200;" xml:space="preserve">
<g>
	<g>
		<g>
			<g>
				<path d="M198.1,161.5h-1.5v-10.4h-12.3v10.4h-1.5v-21.1h1.5v9.3h12.3v-9.3h1.5V161.5z"/>
				<path d="M230.1,154.1h-8.6l-2.9,7.4H217l8.5-21.1h0.9l8.3,21.1H233L230.1,154.1z M222.1,152.7h7.5l-2.9-7.6
					c-0.2-0.6-0.5-1.4-0.9-2.5c-0.3,0.9-0.5,1.8-0.8,2.5L222.1,152.7z"/>
				<path d="M253.6,161.5v-21.1h1.5v21.1H253.6z"/>
				<path d="M278.5,152.3v9.2H277v-21.1h5c2.6,0,4.5,0.5,5.8,1.4c1.2,1,1.9,2.4,1.9,4.4c0,1.4-0.4,2.6-1.1,3.6
					c-0.7,1-1.9,1.7-3.4,2.1l5.7,9.6h-1.8l-5.4-9.2H278.5z M278.5,151.1h4c1.8,0,3.2-0.4,4.1-1.2c1-0.8,1.5-2,1.5-3.5
					c0-1.6-0.5-2.8-1.4-3.5c-1-0.7-2.5-1.1-4.7-1.1h-3.5V151.1z"/>
				<path d="M322.1,156.1c0,1.8-0.6,3.2-1.9,4.2c-1.3,1-3,1.5-5.1,1.5c-2.6,0-4.5-0.3-5.9-0.8v-1.5c1.5,0.6,3.5,1,5.8,1
					c1.7,0,3.1-0.4,4.1-1.2c1-0.8,1.5-1.8,1.5-3.1c0-0.8-0.2-1.5-0.5-2c-0.3-0.5-0.9-1-1.6-1.4s-1.9-0.9-3.3-1.4
					c-2.2-0.7-3.6-1.5-4.5-2.4c-0.8-0.9-1.2-2-1.2-3.4c0-1.6,0.6-2.9,1.9-3.9c1.2-1,2.8-1.5,4.8-1.5c2,0,3.8,0.4,5.6,1.1l-0.5,1.3
					c-1.7-0.7-3.4-1.1-5-1.1c-1.6,0-2.8,0.4-3.7,1.1c-0.9,0.7-1.4,1.7-1.4,2.9c0,0.8,0.1,1.4,0.4,1.9c0.3,0.5,0.7,1,1.4,1.3
					c0.6,0.4,1.7,0.9,3.3,1.4c1.6,0.6,2.9,1.1,3.7,1.7c0.8,0.5,1.4,1.1,1.8,1.8C321.9,154.3,322.1,155.1,322.1,156.1z"/>
				<path d="M347.9,161.5h-1.5v-19.7h-6.8v-1.4h15.2v1.4h-6.8V161.5z"/>
				<path d="M378.7,152l6.2-11.5h1.6l-7,12.9v8.1h-1.5v-8l-7-13h1.7L378.7,152z"/>
				<path d="M405.4,161.5v-21.1h1.5v19.7h10v1.4H405.4z"/>
				<path d="M436.4,161.5v-21.1h1.5v21.1H436.4z"/>
				<path d="M471.4,156.1c0,1.8-0.6,3.2-1.9,4.2c-1.3,1-3,1.5-5.1,1.5c-2.6,0-4.5-0.3-5.9-0.8v-1.5c1.5,0.6,3.5,1,5.8,1
					c1.7,0,3.1-0.4,4.1-1.2c1-0.8,1.5-1.8,1.5-3.1c0-0.8-0.2-1.5-0.5-2s-0.9-1-1.6-1.4s-1.9-0.9-3.3-1.4c-2.2-0.7-3.6-1.5-4.5-2.4
					c-0.8-0.9-1.2-2-1.2-3.4c0-1.6,0.6-2.9,1.9-3.9c1.2-1,2.8-1.5,4.8-1.5c2,0,3.8,0.4,5.6,1.1l-0.5,1.3c-1.7-0.7-3.4-1.1-5-1.1
					c-1.6,0-2.8,0.4-3.7,1.1c-0.9,0.7-1.4,1.7-1.4,2.9c0,0.8,0.1,1.4,0.4,1.9c0.3,0.5,0.7,1,1.4,1.3c0.6,0.4,1.7,0.9,3.3,1.4
					c1.6,0.6,2.9,1.1,3.7,1.7c0.8,0.5,1.4,1.1,1.8,1.8C471.2,154.3,471.4,155.1,471.4,156.1z"/>
				<path d="M497.3,161.5h-1.5v-19.7H489v-1.4h15.2v1.4h-6.8V161.5z"/>
			</g>
			<g>
				<rect x="518.9" y="152.5" width="60.8" height="0.7"/>
			</g>
			<g>
				<rect x="106.5" y="152.5" width="60.8" height="0.7"/>
			</g>
		</g>
		<g>
			<polygon points="144.5,50.4 137,50.4 106.8,127.3 115.5,127.3 140.6,60.2 165.9,127.3 174.6,127.3 			"/>
			<polygon points="193.9,89 173.7,50.7 163.9,50.7 189.4,98.1 189.4,127.3 198.4,127.3 198.4,97.6 224,50.7 214.4,50.7 			"/>
			<path d="M253.7,50.7h-23.5v76.6h21.2c12.9,0,22.8-3.3,29.6-10c6.9-6.7,10.3-16.4,10.3-29c0-11.8-3.3-21.1-9.9-27.7
				S265.6,50.7,253.7,50.7z M273.9,111.8c-5.3,5.2-13.3,7.8-23.9,7.8h-10.8V58.5h12.9c9.9,0,17.3,2.5,22.3,7.6
				c5,5.1,7.5,12.6,7.5,22.6C281.9,98.9,279.3,106.6,273.9,111.8z"/>
			<polygon points="304.2,127.3 346.9,127.3 346.9,119.4 313.1,119.4 313.1,91.2 344.8,91.2 344.8,83.3 313.1,83.3 313.1,58.7 
				346.9,58.7 346.9,50.7 304.2,50.7 			"/>
			<path d="M408.1,72.4c0-7.2-2.2-12.6-6.7-16.2c-4.5-3.6-11.4-5.4-20.8-5.4h-21v76.6h8.9v-26.8v-5v-7.6v-4.3v-25H380
				c6.6,0,11.4,1.1,14.4,3.4c3,2.2,4.5,5.9,4.5,10.9c0,5-1.5,8.7-4.4,11.2c-2.3,1.9-5.5,3.1-9.8,3.5V96l18.3,31.4h10.5l-20.8-34.4
				C403,89.4,408.1,82.5,408.1,72.4z"/>
			<path d="M453,49.5c-11.3,0-20,3.4-26.2,10.3c-6.1,6.9-9.2,16.5-9.2,29c0,12.6,3.1,22.3,9.2,29.2c6.1,6.9,14.8,10.3,26.1,10.3
				c11,0,19.7-3.5,25.9-10.5c6.2-7,9.3-16.7,9.3-28.9c0-12.3-3.1-21.9-9.3-28.9C472.6,53,464,49.5,453,49.5z M472.1,112.6
				c-4.3,5.3-10.7,8-19.2,8c-8.4,0-14.8-2.7-19.3-8c-4.4-5.4-6.6-13.2-6.6-23.6c0-10.2,2.2-18,6.6-23.4c4.4-5.4,10.9-8,19.4-8
				c8.5,0,14.8,2.7,19.1,8c4.3,5.3,6.5,13.1,6.5,23.4C478.6,99.3,476.5,107.2,472.1,112.6z"/>
			<polygon points="596.2,50.7 575.8,89 555.5,50.7 547.8,50.7 545.8,50.7 538.3,50.7 519.2,81.1 500.2,50.7 490.3,50.7 514,87.3 
				488.6,127.3 498,127.3 519,93.7 539.5,127.3 549.7,127.3 524.1,87 546.7,52.5 571.3,98.1 571.3,127.3 580.3,127.3 580.3,97.6 
				605.9,50.7 			"/>
			<path d="M85.9,64.2L85.9,64.2l0,76.6c0,3.9-0.9,7-2.7,9.1c-1.8,2.1-4.4,3.1-7.9,3.1c-2.7,0-5.3-0.4-7.8-1v7.6
				c1.9,0.9,4.5,1.4,7.8,1.4c6.3,0,11.1-1.8,14.5-5.5c3.4-3.7,5-8.8,5-15.4V69.3h0V50.4h-8.9V64.2z"/>
		</g>
	</g>
</g>
</svg>
